<svg xmlns="http://www.w3.org/2000/svg" viewBox="0 0 32 32">
  <!-- Sno cone cup -->
  <path d="M8 14 L24 14 L20 30 L12 30 Z" fill="#FFD700" stroke="#E5C100" stroke-width="1"/>
  
  <!-- Cup stripes -->
  <path d="M9 17 L23 17" stroke="#E5C100" stroke-width="0.5"/>
  <path d="M10 20 L22 20" stroke="#E5C100" stroke-width="0.5"/>
  <path d="M11 23 L21 23" stroke="#E5C100" stroke-width="0.5"/>
  <path d="M11.5 26 L20.5 26" stroke="#E5C100" stroke-width="0.5"/>
  
  <!-- Shaved ice dome - rainbow layers -->
  <ellipse cx="16" cy="14" rx="10" ry="6" fill="#1E5799"/>
  <path d="M6 14 Q10 10, 16 8 Q22 10, 26 14 Q22 12, 16 11 Q10 12, 6 14" fill="#E63946"/>
  <path d="M7 13 Q11 10, 16 9 Q21 10, 25 13 Q21 11, 16 10.5 Q11 11, 7 13" fill="#FFD700"/>
  
  <!-- Ice texture dots -->
  <circle cx="10" cy="12" r="0.8" fill="rgba(255,255,255,0.6)"/>
  <circle cx="14" cy="10" r="0.6" fill="rgba(255,255,255,0.6)"/>
  <circle cx="18" cy="11" r="0.7" fill="rgba(255,255,255,0.6)"/>
  <circle cx="22" cy="12" r="0.6" fill="rgba(255,255,255,0.6)"/>
  <circle cx="16" cy="13" r="0.5" fill="rgba(255,255,255,0.6)"/>
  
  <!-- Small palm tree accent -->
  <path d="M26 6 Q24 4, 22 5 M26 6 Q28 4, 29 5 M26 6 Q26 3, 27 2" stroke="#228B22" stroke-width="1.5" fill="none" stroke-linecap="round"/>
  <path d="M26 6 L26 10" stroke="#8B4513" stroke-width="1.5" stroke-linecap="round"/>
</svg>
