<svg xmlns="http://www.w3.org/2000/svg" viewBox="0 0 32 32">
  <!-- Glass/bowl -->
  <path d="M6 14 L26 14 L24 28 Q24 30, 22 30 L10 30 Q8 30, 8 28 Z" fill="#87CEEB" stroke="#5BA3D0" stroke-width="0.5"/>
  
  <!-- Shaved ice dome - blue and yellow layers -->
  <ellipse cx="16" cy="14" rx="11" ry="6" fill="#1E5799"/>
  <path d="M5 14 Q8 8, 16 6 Q24 8, 27 14 Q22 10, 16 9 Q10 10, 5 14" fill="#FFD700"/>
  <path d="M7 13 Q10 9, 16 7.5 Q22 9, 25 13 Q20 10, 16 9.5 Q12 10, 7 13" fill="#1E5799"/>
  
  <!-- Ice texture/sparkles -->
  <circle cx="10" cy="11" r="1.2" fill="rgba(255,255,255,0.7)"/>
  <circle cx="16" cy="9" r="1" fill="rgba(255,255,255,0.8)"/>
  <circle cx="22" cy="11" r="1.1" fill="rgba(255,255,255,0.7)"/>
  <circle cx="13" cy="12" r="0.8" fill="rgba(255,255,255,0.5)"/>
  <circle cx="19" cy="10" r="0.7" fill="rgba(255,255,255,0.6)"/>
  
  <!-- Spoon -->
  <ellipse cx="25" cy="4" rx="3" ry="1.5" fill="#FFD700" transform="rotate(35 25 4)"/>
  <path d="M23 5 L18 18" stroke="#FFD700" stroke-width="1.5" stroke-linecap="round"/>
</svg>
